<?xml version="1.0" standalone="no"?>
<!DOCTYPE svg PUBLIC "-//W3C//DTD SVG 20010904//EN"
 "http://www.w3.org/TR/2001/REC-SVG-20010904/DTD/svg10.dtd">
<svg version="1.0" xmlns="http://www.w3.org/2000/svg"
 width="227.000000pt" height="227.000000pt" viewBox="0 0 227.000000 227.000000"
 preserveAspectRatio="xMidYMid meet">
<metadata>
Created by potrace 1.14, written by Peter Selinger 2001-2017
</metadata>
<g transform="translate(0.000000,227.000000) scale(0.100000,-0.100000)"
fill="#000000" stroke="none">
<path d="M1085 2164 c-49 -31 -119 -75 -155 -98 -36 -24 -105 -68 -155 -99
-104 -66 -109 -69 -155 -100 -19 -13 -42 -26 -50 -30 -8 -4 -67 -41 -130 -82
-63 -41 -136 -87 -162 -102 l-48 -28 0 -494 c0 -430 2 -492 15 -487 8 3 20 0
27 -7 7 -7 93 -64 191 -127 97 -63 221 -143 275 -178 53 -35 172 -112 264
-173 l167 -109 33 18 c32 18 132 77 166 97 9 6 48 28 85 50 38 22 76 45 85 50
19 11 176 104 204 120 10 6 90 52 178 104 l159 95 -42 24 c-23 13 -105 58
-182 100 -77 42 -142 78 -145 81 -3 3 -25 16 -50 29 -25 12 -72 37 -105 56
-33 19 -81 46 -106 59 -91 50 -124 69 -135 78 -6 5 -13 7 -16 4 -3 -3 -11 1
-18 10 -7 8 -16 15 -20 15 -4 0 -47 22 -95 49 l-88 49 39 24 c21 14 77 47 122
74 46 27 98 57 115 68 18 10 86 50 152 88 66 39 131 78 145 87 14 10 77 48
140 85 63 37 122 71 130 76 8 5 37 22 64 38 l49 30 -307 183 c-484 291 -548
329 -549 329 -1 0 -42 -26 -92 -56z"/>
</g>
</svg>
