<svg width="54" height="54" viewBox="0 0 54 54" fill="none" xmlns="http://www.w3.org/2000/svg">
<g clip-path="url(#clip0_16_18)">
<path d="M27 11.8125C27 11.3649 26.8222 10.9357 26.5057 10.6193C26.1893 10.3028 25.7601 10.125 25.3125 10.125C24.8649 10.125 24.4357 10.3028 24.1193 10.6193C23.8028 10.9357 23.625 11.3649 23.625 11.8125V30.375C23.6251 30.6724 23.7038 30.9646 23.8532 31.2218C24.0025 31.479 24.2172 31.6922 24.4755 31.8398L36.288 38.5898C36.6756 38.7993 37.1299 38.8488 37.5536 38.7279C37.9773 38.6069 38.3369 38.325 38.5555 37.9424C38.7741 37.5598 38.8344 37.1069 38.7235 36.6805C38.6126 36.254 38.3393 35.8879 37.962 35.6602L27 29.3962V11.8125Z" fill="white"/>
<path d="M27 54C34.1608 54 41.0284 51.1554 46.0919 46.0919C51.1554 41.0284 54 34.1608 54 27C54 19.8392 51.1554 12.9716 46.0919 7.90812C41.0284 2.84464 34.1608 0 27 0C19.8392 0 12.9716 2.84464 7.90812 7.90812C2.84464 12.9716 0 19.8392 0 27C0 34.1608 2.84464 41.0284 7.90812 46.0919C12.9716 51.1554 19.8392 54 27 54ZM50.625 27C50.625 33.2657 48.1359 39.2748 43.7054 43.7054C39.2748 48.1359 33.2657 50.625 27 50.625C20.7343 50.625 14.7251 48.1359 10.2946 43.7054C5.86406 39.2748 3.375 33.2657 3.375 27C3.375 20.7343 5.86406 14.7251 10.2946 10.2946C14.7251 5.86406 20.7343 3.375 27 3.375C33.2657 3.375 39.2748 5.86406 43.7054 10.2946C48.1359 14.7251 50.625 20.7343 50.625 27Z" fill="white"/>
</g>
<defs>
<clipPath id="clip0_16_18">
<rect width="54" height="54" fill="white"/>
</clipPath>
</defs>
</svg>
