<svg width="50" height="67" viewBox="0 0 50 67" fill="none" xmlns="http://www.w3.org/2000/svg">
<path d="M42.3583 37.25C40.175 41.675 37.2167 46.0833 34.1917 50.0417C31.3221 53.7734 28.2537 57.348 25 60.75C21.7462 57.3481 18.6779 53.7735 15.8083 50.0417C12.7833 46.0833 9.825 41.675 7.64167 37.25C5.43333 32.7792 4.16667 28.5917 4.16667 25C4.16667 19.4747 6.3616 14.1756 10.2686 10.2686C14.1756 6.3616 19.4747 4.16667 25 4.16667C30.5253 4.16667 35.8244 6.3616 39.7314 10.2686C43.6384 14.1756 45.8333 19.4747 45.8333 25C45.8333 28.5917 44.5625 32.7792 42.3583 37.25ZM25 66.6667C25 66.6667 50 42.975 50 25C50 18.3696 47.3661 12.0107 42.6777 7.32233C37.9893 2.63392 31.6304 0 25 0C18.3696 0 12.0107 2.63392 7.32233 7.32233C2.63392 12.0107 9.88008e-08 18.3696 0 25C0 42.975 25 66.6667 25 66.6667Z" fill="white"/>
<path d="M25 33.3333C22.7899 33.3333 20.6702 32.4554 19.1074 30.8926C17.5446 29.3298 16.6667 27.2101 16.6667 25C16.6667 22.7899 17.5446 20.6702 19.1074 19.1074C20.6702 17.5446 22.7899 16.6667 25 16.6667C27.2101 16.6667 29.3298 17.5446 30.8926 19.1074C32.4554 20.6702 33.3333 22.7899 33.3333 25C33.3333 27.2101 32.4554 29.3298 30.8926 30.8926C29.3298 32.4554 27.2101 33.3333 25 33.3333ZM25 37.5C28.3152 37.5 31.4946 36.183 33.8388 33.8388C36.183 31.4946 37.5 28.3152 37.5 25C37.5 21.6848 36.183 18.5054 33.8388 16.1612C31.4946 13.817 28.3152 12.5 25 12.5C21.6848 12.5 18.5054 13.817 16.1612 16.1612C13.817 18.5054 12.5 21.6848 12.5 25C12.5 28.3152 13.817 31.4946 16.1612 33.8388C18.5054 36.183 21.6848 37.5 25 37.5Z" fill="white"/>
</svg>
