<svg width="54" height="54" viewBox="0 0 54 54" fill="none" xmlns="http://www.w3.org/2000/svg">
<path d="M12.332 4.483C12.1328 4.2267 11.8813 4.01573 11.5943 3.8641C11.3072 3.71248 10.9912 3.62366 10.6672 3.60355C10.3432 3.58343 10.0186 3.63249 9.71506 3.74746C9.41147 3.86243 9.13582 4.04068 8.90642 4.27037L5.41667 7.7635C3.78655 9.397 3.1858 11.7089 3.89792 13.7372C6.85354 22.1329 11.6614 29.7553 17.9649 36.0392C24.2489 42.3427 31.8714 47.1505 40.2669 50.1062C42.2953 50.8184 44.6072 50.2176 46.2407 48.5875L49.7304 45.0977C49.9601 44.8683 50.1384 44.5927 50.2533 44.2891C50.3683 43.9855 50.4174 43.6609 50.3972 43.3369C50.3771 43.0129 50.2883 42.6969 50.1367 42.4099C49.9851 42.1228 49.7741 41.8714 49.5178 41.6721L41.7317 35.6174C41.4579 35.405 41.1394 35.2576 40.8003 35.1863C40.4612 35.1149 40.1103 35.1216 39.7742 35.2056L32.3829 37.0517C31.3963 37.2983 30.3627 37.2852 29.3827 37.0138C28.4027 36.7423 27.5096 36.2217 26.7905 35.5026L18.5015 27.2102C17.7819 26.4915 17.2606 25.5986 16.9886 24.6186C16.7165 23.6385 16.7029 22.6047 16.949 21.6179L18.7985 14.2266C18.8826 13.8905 18.8892 13.5396 18.8179 13.2005C18.7466 12.8614 18.5992 12.5429 18.3868 12.2691L12.332 4.483ZM6.3583 1.72562C6.9489 1.13483 7.65844 0.676436 8.43979 0.38089C9.22114 0.0853439 10.0564 -0.0405953 10.8902 0.0114346C11.7239 0.0634646 12.5371 0.292273 13.2756 0.682667C14.0142 1.07306 14.6612 1.61611 15.1738 2.27575L21.2285 10.0585C22.3389 11.4861 22.7304 13.3457 22.2917 15.1007L20.4455 22.492C20.3501 22.8748 20.3553 23.2758 20.4605 23.6561C20.5658 24.0363 20.7676 24.3829 21.0463 24.6621L29.3387 32.9545C29.6182 33.2338 29.9654 33.4359 30.3463 33.5412C30.7272 33.6465 31.1288 33.6513 31.5122 33.5552L38.9 31.7091C39.7661 31.4926 40.6701 31.4758 41.5436 31.6599C42.4171 31.8441 43.2374 32.2245 43.9423 32.7722L51.725 38.827C54.5229 41.0039 54.7794 45.1382 52.2752 47.6391L48.7854 51.1289C46.2879 53.6264 42.5552 54.7232 39.0755 53.4981C30.1695 50.3645 22.0833 45.2659 15.4168 38.5806C8.7319 31.915 3.63335 23.83 0.499296 14.9252C-0.722453 11.449 0.374422 7.71287 2.87192 5.21537L6.36167 1.72562H6.3583Z" fill="white"/>
</svg>
